PathFileType	4	(X/Y/Z)	D:\TRACE\v60_Jaco2_6-2-23\JustArmDRS_Motion2_2-v60.trc
DataRate	CameraRate	NumFrames	NumMarkers	Units	OrigDataRate	OrigDataStartFrame	OrigNumFrames
100.00	100.00	      24	9	mm	100.00	1752	      7005
Frame#	Time	front left toe			Front right toe			aft left toe			aft right toe			Arm			FL body			FR body			AL Body			AR Body			
		X1	Y1	Z1	X2	Y2	Z2	X3	Y3	Z3	X4	Y4	Z4	X5	Y5	Z5	X6	Y6	Z6	X7	Y7	Z7	X8	Y8	Z8	X9	Y9	Z9	

1752	17.510	-233.57869	18.50089	-167.13556	173.26942	15.58927	-212.59148	-166.21289	20.61630	439.14648	236.34604	22.01409	426.48959	-27.98696	1210.02649	-531.32874	-119.27739	593.89063	-304.57861	40.94845	593.32385	-324.11310	-8.40333	574.48883	634.13080	148.19821	568.35803	617.40521	
1753	17.520	-234.64955	18.22361	-167.33905	172.58533	15.08779	-212.62955	-167.10966	21.16986	438.75409	235.08220	22.98321	426.13055	-30.26353	1209.21143	-532.81604	-120.28627	593.25232	-305.28995	38.75521	592.90179	-324.29941	-10.03540	575.15839	633.58759	146.15387	569.07904	616.56451	
1754	17.530	-235.78453	17.90577	-167.70195	171.38570	14.45610	-213.05296	-168.42566	22.18602	438.49576	234.07405	23.90331	425.90802	-32.69100	1208.20239	-534.63324	-121.97774	592.99603	-306.07690	37.18821	592.39160	-324.52814	-11.18778	576.00385	633.67889	144.41081	570.07227	615.81274	
1755	17.540	-236.76324	17.37805	-168.05963	170.58278	14.01389	-213.38724	-169.27995	22.89231	438.29327	233.28746	24.80020	425.55716	-35.12182	1207.40051	-536.15161	-123.21381	592.19360	-306.61908	35.89146	592.16174	-325.19675	-13.34883	576.95496	631.42712	143.12064	571.39807	615.57227	
1756	17.550	-237.30072	16.64662	-168.20464	169.67291	13.54718	-213.72578	-170.26091	23.71405	437.93106	232.07550	25.51896	425.27551	-37.14741	1206.87549	-537.66803	-124.66407	591.68799	-307.33289	34.92376	591.84613	-326.33939	-14.81760	577.96527	631.80920	141.21790	572.19556	614.56122	
1757	17.560	-238.55431	16.30911	-168.57790	168.82874	13.23233	-213.99960	-171.23158	24.57707	437.74780	231.48137	26.55287	425.05356	-39.32962	1206.00574	-539.25775	-126.07726	591.11523	-308.15848	33.57974	591.58179	-327.03305	-16.45518	578.84943	631.18524	139.12962	572.95105	614.12488	
1758	17.570	-239.36020	15.87138	-168.94737	167.67683	12.89280	-214.30786	-172.18448	25.41538	437.66779	230.81346	27.44310	424.82397	-41.53230	1205.36719	-540.53870	-127.38047	590.32227	-308.69476	32.18225	591.24524	-327.72357	-17.99757	579.63757	630.46320	138.01233	574.49249	613.58221	
1759	17.580	-240.05867	15.24976	-169.09744	166.89517	12.51817	-214.62131	-173.19540	26.16490	437.11679	229.39355	28.28871	424.33060	-43.65990	1204.56140	-541.79034	-128.76620	589.97650	-309.46216	30.86856	590.72028	-328.06967	-19.83544	580.40002	629.89252	136.69168	575.52966	612.89758	
1760	17.590	-240.96864	14.80720	-169.52873	165.96704	11.92243	-214.96858	-174.40756	27.19945	436.77713	228.98352	29.13467	424.20959	-45.68327	1203.91260	-543.48010	-129.84859	589.18152	-309.97815	29.29390	589.82538	-328.02124	-21.92715	581.25055	629.10571	134.32056	575.85107	612.33881	
1761	17.600	-241.90265	14.53874	-169.76141	165.47050	11.54817	-215.06084	-174.80052	27.61770	436.57324	228.10516	29.95815	423.69833	-47.57107	1202.78235	-544.85883	-131.39471	588.77191	-310.69330	27.98059	589.60529	-329.18689	-22.86475	582.00244	628.61774	133.34067	577.20685	611.95764	
1762	17.610	-242.82028	14.18918	-170.29126	164.44502	11.04069	-215.47284	-175.86348	28.69158	436.14600	226.90425	30.74033	423.23343	-49.67361	1202.05994	-546.50183	-132.27768	588.19354	-311.26559	26.36468	589.29980	-329.63947	-24.70120	582.88330	627.92334	131.41397	578.11664	610.99054	
1763	17.620	-243.45027	13.64995	-170.32690	163.83896	10.75625	-215.80573	-176.86336	29.43470	435.76572	226.34178	31.62381	422.98279	-51.40679	1201.13782	-547.89789	-133.83011	587.43115	-312.10187	25.81382	589.10541	-330.61472	-26.24969	583.55554	626.47693	130.04330	579.30316	610.57947	
1764	17.630	-244.17429	13.18942	-170.61653	162.98192	10.28815	-216.17888	-177.58783	30.00597	435.53964	225.78574	32.62760	422.91504	-53.18243	1200.66565	-549.39935	-135.05486	587.22809	-312.59723	24.46149	588.76520	-331.26233	-27.20328	584.71063	626.44574	128.92223	580.32574	610.10645	
1765	17.640	-245.01752	12.93678	-170.80350	162.25731	9.92344	-216.42894	-178.39476	30.76005	435.21985	224.51505	33.16665	422.47781	-55.18312	1199.81714	-550.99261	-136.54150	586.51758	-313.36182	22.82286	588.35431	-332.01773	-28.71958	585.41949	626.12128	127.50148	581.33862	609.28064	
1766	17.650	-245.83994	12.48793	-171.19044	161.25677	9.10682	-216.66794	-179.07831	31.44874	434.98398	223.78981	34.05544	422.27097	-57.05391	1198.89197	-552.28046	-137.40138	585.92316	-313.87354	22.11884	587.95715	-332.34964	-29.91259	586.29901	625.15350	125.96399	582.19086	608.74353	
1767	17.660	-246.37933	11.80011	-171.54482	160.91330	9.15566	-216.93915	-180.18927	32.45310	434.54459	223.37848	34.98978	422.02188	-59.05555	1198.25684	-553.64209	-138.80695	585.54590	-314.52289	20.32599	587.26825	-332.85834	-31.70136	587.00568	624.85028	124.43577	583.15430	608.03210	
1768	17.670	-246.83508	11.42694	-171.75130	160.14333	8.73795	-217.27809	-180.54179	33.13955	434.29272	222.77766	35.74578	421.96390	-60.77250	1197.40466	-555.26233	-139.79063	584.86890	-315.02798	19.69613	586.98297	-333.64856	-32.97653	587.81677	624.20697	122.97739	583.92950	607.62610	
1769	17.680	-247.50224	10.81821	-172.00636	159.43726	8.35069	-217.64479	-181.22929	33.98093	434.04291	221.67781	36.35102	421.35239	-62.80017	1196.58813	-556.94836	-141.08122	584.54358	-315.63031	17.65348	586.61938	-334.00034	-34.63856	588.50305	623.41107	121.77111	584.98236	607.17621	
1770	17.690	-247.99118	10.51243	-172.27151	159.08023	7.99848	-217.88310	-181.91261	34.62813	433.72806	221.23840	37.17321	421.14499	-64.50201	1195.25378	-558.75769	-142.42987	583.71301	-316.36978	17.10932	586.45532	-334.93460	-35.52572	589.21753	623.01392	120.42894	585.80939	606.46558	
1771	17.700	-248.97189	10.29634	-172.49234	158.50955	7.43604	-218.17020	-182.47589	35.10325	433.47372	220.80957	38.03214	420.73453	-66.21691	1193.99670	-560.54791	-143.85603	583.48889	-316.98029	16.24978	586.12689	-335.47818	-36.89264	589.86121	622.46106	118.90685	586.40393	605.75134	
1772	17.710	-249.55466	9.71885	-172.76048	158.03423	7.09462	-218.39761	-182.96814	35.79854	433.20706	220.30621	38.93656	420.44669	-67.92428	1192.96985	-562.37787	-144.58482	582.51251	-317.47324	14.69465	585.61871	-336.17783	-37.78033	590.84180	621.90112	117.95897	587.55438	605.40460	
1773	17.720	-249.79324	9.34731	-173.08623	157.45480	6.76364	-218.63133	-183.39948	36.45864	433.00687	219.66559	39.66092	420.21542	-69.94781	1191.76428	-564.18878	-145.81526	582.35101	-318.28470	13.93807	585.16290	-336.35352	-39.21560	591.54462	621.29004	117.15473	588.79895	604.72070	
1774	17.730	-250.10986	9.00141	-173.28819	156.98550	6.39572	-218.86037	-183.77856	37.25584	432.94556	219.27962	40.28858	420.01303	-71.88471	1190.55750	-566.14301	-146.68628	581.71405	-318.55518	12.68917	584.78113	-337.05429	-40.36473	592.37573	620.75348	115.49995	589.33002	604.15912	
1775	17.740	-250.43402	8.59213	-173.44122	156.83870	6.16696	-219.03307	-184.33771	37.98386	432.51923	218.81093	41.11192	419.63477	-73.52268	1189.27124	-568.02222	-148.04002	581.20508	-319.22458	11.33947	584.33447	-337.40891	-41.50148	592.95917	619.84338	114.71259	590.57001	603.84631	
